<svg width="24" height="24" viewBox="0 0 24 24" fill="none" xmlns="http://www.w3.org/2000/svg">
<path d="M8.5 10C9.32843 10 10 9.32843 10 8.5C10 7.67157 9.32843 7 8.5 7C7.67157 7 7 7.67157 7 8.5C7 9.32843 7.67157 10 8.5 10ZM8.5 16.5C9.32843 16.5 10 15.8284 10 15C10 14.1716 9.32843 13.5 8.5 13.5C7.67157 13.5 7 14.1716 7 15C7 15.8284 7.67157 16.5 8.5 16.5ZM15.5 10C16.3284 10 17 9.32843 17 8.5C17 7.67157 16.3284 7 15.5 7C14.6716 7 14 7.67157 14 8.5C14 9.32843 14.6716 10 15.5 10ZM17 15C17 15.8284 16.3284 16.5 15.5 16.5C14.6716 16.5 14 15.8284 14 15C14 14.1716 14.6716 13.5 15.5 13.5C16.3284 13.5 17 14.1716 17 15Z" fill="currentColor"/>
</svg>
