<svg width="24" height="24" viewBox="0 0 24 24" fill="none" xmlns="http://www.w3.org/2000/svg">
<path fill-rule="evenodd" clip-rule="evenodd" d="M12.4121 2.00684C16.6387 2.13802 20 4.27877 20 6.90039L19.999 12C19.999 12.0072 19.9991 12.0143 19.999 12.0215L19.998 17.4336L19.9883 17.6855C19.7738 20.2744 16.2786 22.333 11.999 22.333C7.71952 22.3329 4.22524 20.2743 4.01074 17.6855L4 17.4336L4.00098 7.04492C4.00078 7.02997 4 7.01501 4 7H4.00195V6.90039C4.00196 4.19423 7.58316 2 12.001 2L12.4121 2.00684ZM6 17.4336C6.00022 17.8287 6.26975 18.5076 7.3877 19.1924C8.47242 19.8568 10.0978 20.333 11.999 20.333C13.9002 20.333 15.5256 19.8567 16.6104 19.1924C17.7282 18.5076 17.9978 17.8287 17.998 17.4336V15.3447C17.8202 15.4696 17.6362 15.5878 17.4463 15.6963C16.0027 16.5212 14.0748 17 12 17C9.92522 17 7.99729 16.5212 6.55371 15.6963C6.36318 15.5874 6.17841 15.4691 6 15.3438V17.4336ZM17.999 10.3447C17.821 10.4698 17.6364 10.5876 17.4463 10.6963C16.0027 11.5212 14.0748 12 12 12C9.92522 12 7.99729 11.5212 6.55371 10.6963C6.36357 10.5876 6.17904 10.4698 6.00098 10.3447C6.00089 10.8976 6.00106 11.4634 6.00098 12.0225C6.01172 12.6093 6.4428 13.3291 7.54688 13.96C8.63679 14.5827 10.2089 15 12 15C13.7911 15 15.3632 14.5827 16.4531 13.96C17.5541 13.3308 17.985 12.6133 17.998 12.0273L17.999 10.3447ZM12.001 4C10.0996 4 8.47343 4.47616 7.38867 5.14062C6.27053 5.82565 6.00196 6.50542 6.00195 6.90039C6.00194 6.94735 6.00099 6.99521 6.00098 7.04395C6.02175 7.62678 6.45623 8.33673 7.54688 8.95996C8.63679 9.58269 10.2089 10 12 10C13.7911 10 15.3632 9.58269 16.4531 8.95996C17.5713 8.32098 18 7.59084 18 7V6.90039L17.9863 6.73926C17.9196 6.33527 17.5911 5.74019 16.6123 5.14062C15.5276 4.47619 13.9022 4.00005 12.001 4Z" fill="currentColor"/>
</svg>
