<svg width="24" height="24" viewBox="0 0 24 24" fill="none" xmlns="http://www.w3.org/2000/svg">
<path d="M17.7373 18V20H6.2627V18H17.7373ZM18 17.7373V6.2627C18 6.11762 17.8824 6.00002 17.7373 6H6.2627C6.13565 6.00002 6.02928 6.09012 6.00488 6.20996L6 6.2627V17.7373C6.00002 17.8824 6.11763 18 6.2627 18V20C5.09119 20 4.12766 19.1097 4.01172 17.9688L4 17.7373V6.2627C4.00002 5.01305 5.01305 4.00003 6.2627 4H17.7373L17.9688 4.01172C19.1097 4.12766 20 5.09119 20 6.2627V17.7373L19.9883 17.9688C19.8801 19.0336 19.0336 19.8801 17.9688 19.9883L17.7373 20V18C17.8824 18 18 17.8824 18 17.7373Z" fill="currentColor"/>
</svg>
