<svg width="24" height="24" viewBox="0 0 24 24" fill="none" xmlns="http://www.w3.org/2000/svg">
<path fill-rule="evenodd" clip-rule="evenodd" d="M12.0361 2C16.4341 2 20 4.19423 20 6.90039V7H20.0049C20.0049 7.03766 20.0012 7.07503 20 7.1123L19.998 18.8457C19.9985 19.827 19.5673 20.7584 18.8184 21.3926C18.1469 21.9611 17.1599 21.9057 16.5557 21.293L16.4404 21.1631L15.7607 20.3145C15.3977 19.8612 14.697 19.8957 14.3809 20.3828L14.2305 20.6152L14.1338 20.7529C13.1022 22.1321 10.9557 21.9994 10.1191 20.4512C9.84785 19.949 9.15172 19.8866 8.79492 20.332L8.34863 20.8896L8.20605 21.0508C7.51004 21.7665 6.4158 21.9278 5.54297 21.4434L5.35938 21.3291C4.56743 20.7835 4.0949 19.8901 4.05762 18.9355L4.05664 18.7441L4.07129 17.4336L4.07227 7.13672C4.07046 7.0914 4.06738 7.04588 4.06738 7H4.07324V6.90039C4.07324 4.19428 7.63827 2.00008 12.0361 2ZM17.999 10.3525C17.8255 10.4743 17.6459 10.5891 17.4609 10.6953C16.0228 11.5208 14.1029 12 12.0361 12C9.9693 12 8.04855 11.5209 6.61035 10.6953C6.42539 10.5891 6.24574 10.4743 6.07227 10.3525V16.2354C6.07222 16.6047 6.07132 16.9042 6.07129 17.1113V17.4336C6.07128 17.9112 6.06481 18.3743 6.05566 18.7881C6.04737 19.1668 6.22555 19.4976 6.49414 19.6826C6.58815 19.7472 6.71579 19.7277 6.78711 19.6387L7.23438 19.0811L7.35547 18.9404C8.59631 17.5794 10.8081 17.7786 11.7852 19.3398L11.8789 19.5L11.9414 19.5869C12.1092 19.7617 12.4101 19.7457 12.5518 19.5273L12.7021 19.2959L12.8047 19.1465C13.8696 17.7053 16.0002 17.5986 17.2041 18.9258L17.3213 19.0635L17.7578 19.6084C17.9118 19.3867 17.9982 19.1224 17.998 18.8467C17.9978 18.4027 17.998 17.9089 17.998 17.4326L17.999 10.3525ZM12.0361 4C10.1466 4.00004 8.53177 4.47565 7.4541 5.13867C6.344 5.82174 6.07324 6.50096 6.07324 6.90039C6.07323 6.97128 6.07228 7.04424 6.07227 7.11914C6.126 7.68907 6.56838 8.36508 7.60645 8.96094C8.69035 9.58309 10.2544 10 12.0361 10C13.8178 9.99997 15.382 9.58309 16.4658 8.96094C17.5078 8.36278 17.9481 7.68359 17.999 7.1123L18 6.90039L17.9854 6.7373C17.9183 6.33045 17.5901 5.73617 16.6191 5.13867C15.5414 4.47553 13.926 4 12.0361 4Z" fill="currentColor"/>
</svg>
