<svg xmlns="http://www.w3.org/2000/svg" width="1em" height="1em" viewBox="0 0 24 24"><path fill="currentColor" d="M2.88 18.05a35.9 35.9 0 0 1 8.53-16.322a.8.8 0 0 1 1.178 0q.25.27.412.456a35.9 35.9 0 0 1 8.119 15.864a44 44 0 0 1-6.584.875L12.447 23.1a.5.5 0 0 1-.894 0l-2.089-4.177a44 44 0 0 1-6.584-.875m6.697-1.123l1.158.066L12 19.523l1.265-2.53l1.157-.066a42 42 0 0 0 4.227-.455a33.9 33.9 0 0 0-6.65-12.387a33.9 33.9 0 0 0-6.648 12.387a42 42 0 0 0 4.226.455M12 14.995a3 3 0 1 1 0-6a3 3 0 0 1 0 6m0-2a1 1 0 1 0 0-2a1 1 0 0 0 0 2"/></svg>