<svg xmlns="http://www.w3.org/2000/svg" width="1em" height="1em" viewBox="0 0 24 24"><path fill="currentColor" d="M6.194 14.644c0 1.16-.943 2.107-2.103 2.107a2.11 2.11 0 0 1-2.104-2.107a2.11 2.11 0 0 1 2.104-2.106h2.103zm1.061 0c0-1.16.944-2.106 2.104-2.106a2.11 2.11 0 0 1 2.103 2.106v5.274a2.11 2.11 0 0 1-2.103 2.106a2.11 2.11 0 0 1-2.104-2.106zm2.104-8.455c-1.16 0-2.104-.948-2.104-2.107s.944-2.106 2.104-2.106a2.11 2.11 0 0 1 2.103 2.106v2.107zm0 1.06a2.11 2.11 0 0 1 2.103 2.107a2.11 2.11 0 0 1-2.103 2.106H4.092a2.11 2.11 0 0 1-2.104-2.106a2.11 2.11 0 0 1 2.104-2.107zm8.447 2.107c0-1.16.943-2.107 2.103-2.107a2.11 2.11 0 0 1 2.104 2.107a2.11 2.11 0 0 1-2.104 2.106h-2.103zm-1.061 0c0 1.16-.944 2.106-2.104 2.106a2.11 2.11 0 0 1-2.103-2.106V4.082a2.11 2.11 0 0 1 2.103-2.106c1.16 0 2.104.946 2.104 2.106zm-2.104 8.455c1.16 0 2.104.948 2.104 2.107s-.944 2.106-2.104 2.106a2.11 2.11 0 0 1-2.103-2.106v-2.107zm0-1.06a2.11 2.11 0 0 1-2.103-2.107a2.11 2.11 0 0 1 2.103-2.106h5.268a2.11 2.11 0 0 1 2.104 2.106a2.11 2.11 0 0 1-2.104 2.107z"/></svg>