<svg width="24" height="24" viewBox="0 0 24 24" fill="none" xmlns="http://www.w3.org/2000/svg">
<path d="M22 20.6787L20.6787 22L17.2197 18.541C15.9055 19.4316 14.258 19.9384 12.3584 19.9385C9.00546 19.9384 6.1047 18.0547 4.69336 15.3076C4.11265 14.173 3.78132 12.8893 3.78125 11.5332C3.78131 10.177 4.11252 8.89244 4.69336 7.75781C4.88726 7.38045 5.11002 7.0199 5.35742 6.67773L2 3.32031L3.32031 2L22 20.6787ZM6.72852 8.04883C6.07251 9.06206 5.6915 10.263 5.69141 11.5518C5.69141 15.1707 8.68519 18.1045 12.3779 18.1045C13.6699 18.1045 14.8323 17.7433 15.7998 17.1211L6.72852 8.04883ZM20.5283 10.6162C20.5703 10.976 20.5928 11.3453 20.5928 11.7236C20.5928 13.0572 20.3359 14.2803 19.8633 15.3535L18.3447 13.835C18.4918 13.4055 18.5994 12.9549 18.6602 12.4883H16.998L15.126 10.6162H20.5283ZM12.3584 3.12695C14.6702 3.127 16.6123 3.96015 18.0977 5.31641L16.7012 6.68555C15.5958 5.63771 14.0998 4.99907 12.3779 4.99902C11.523 4.99903 10.7056 5.15773 9.9541 5.44434L8.52246 4.0127C9.67641 3.44627 10.9792 3.12697 12.3584 3.12695Z" fill="#18191B"/>
</svg>
